<svg width="24" height="24" viewBox="0 0 24 24" fill="none" xmlns="http://www.w3.org/2000/svg">
<path fill-rule="evenodd" clip-rule="evenodd" d="M8.5 12.5H7.5V13.5H8.5V12.5ZM7.5 11.5C7.23478 11.5 6.98043 11.6054 6.79289 11.7929C6.60536 11.9804 6.5 12.2348 6.5 12.5V13.5C6.5 13.7652 6.60536 14.0196 6.79289 14.2071C6.98043 14.3946 7.23478 14.5 7.5 14.5H8.5C8.76522 14.5 9.01957 14.3946 9.20711 14.2071C9.39464 14.0196 9.5 13.7652 9.5 13.5V12.5C9.5 12.2348 9.39464 11.9804 9.20711 11.7929C9.01957 11.6054 8.76522 11.5 8.5 11.5H7.5ZM12.5 12.5H11.5V13.5H12.5V12.5ZM11.5 11.5C11.2348 11.5 10.9804 11.6054 10.7929 11.7929C10.6054 11.9804 10.5 12.2348 10.5 12.5V13.5C10.5 13.7652 10.6054 14.0196 10.7929 14.2071C10.9804 14.3946 11.2348 14.5 11.5 14.5H12.5C12.7652 14.5 13.0196 14.3946 13.2071 14.2071C13.3946 14.0196 13.5 13.7652 13.5 13.5V12.5C13.5 12.2348 13.3946 11.9804 13.2071 11.7929C13.0196 11.6054 12.7652 11.5 12.5 11.5H11.5ZM16.5 12.5H15.5V13.5H16.5V12.5ZM15.5 11.5C15.2348 11.5 14.9804 11.6054 14.7929 11.7929C14.6054 11.9804 14.5 12.2348 14.5 12.5V13.5C14.5 13.7652 14.6054 14.0196 14.7929 14.2071C14.9804 14.3946 15.2348 14.5 15.5 14.5H16.5C16.7652 14.5 17.0196 14.3946 17.2071 14.2071C17.3946 14.0196 17.5 13.7652 17.5 13.5V12.5C17.5 12.2348 17.3946 11.9804 17.2071 11.7929C17.0196 11.6054 16.7652 11.5 16.5 11.5H15.5ZM8.5 16.5H7.5V17.5H8.5V16.5ZM7.5 15.5C7.23478 15.5 6.98043 15.6054 6.79289 15.7929C6.60536 15.9804 6.5 16.2348 6.5 16.5V17.5C6.5 17.7652 6.60536 18.0196 6.79289 18.2071C6.98043 18.3946 7.23478 18.5 7.5 18.5H8.5C8.76522 18.5 9.01957 18.3946 9.20711 18.2071C9.39464 18.0196 9.5 17.7652 9.5 17.5V16.5C9.5 16.2348 9.39464 15.9804 9.20711 15.7929C9.01957 15.6054 8.76522 15.5 8.5 15.5H7.5ZM12.5 16.5H11.5V17.5H12.5V16.5ZM11.5 15.5C11.2348 15.5 10.9804 15.6054 10.7929 15.7929C10.6054 15.9804 10.5 16.2348 10.5 16.5V17.5C10.5 17.7652 10.6054 18.0196 10.7929 18.2071C10.9804 18.3946 11.2348 18.5 11.5 18.5H12.5C12.7652 18.5 13.0196 18.3946 13.2071 18.2071C13.3946 18.0196 13.5 17.7652 13.5 17.5V16.5C13.5 16.2348 13.3946 15.9804 13.2071 15.7929C13.0196 15.6054 12.7652 15.5 12.5 15.5H11.5ZM16.5 16.5H15.5V17.5H16.5V16.5ZM15.5 15.5C15.2348 15.5 14.9804 15.6054 14.7929 15.7929C14.6054 15.9804 14.5 16.2348 14.5 16.5V17.5C14.5 17.7652 14.6054 18.0196 14.7929 18.2071C14.9804 18.3946 15.2348 18.5 15.5 18.5H16.5C16.7652 18.5 17.0196 18.3946 17.2071 18.2071C17.3946 18.0196 17.5 17.7652 17.5 17.5V16.5C17.5 16.2348 17.3946 15.9804 17.2071 15.7929C17.0196 15.6054 16.7652 15.5 16.5 15.5H15.5Z" fill="#3A3939"/>
<path fill-rule="evenodd" clip-rule="evenodd" d="M5 5.5C4.86739 5.5 4.74021 5.55268 4.64645 5.64645C4.55268 5.74021 4.5 5.86739 4.5 6V19.5C4.5 19.6326 4.55268 19.7598 4.64645 19.8536C4.74021 19.9473 4.86739 20 5 20H19C19.275 20 19.5 19.7755 19.5 19.499V6.001C19.5 5.724 19.275 5.5 19 5.5H17.5V4.5H19C19.829 4.5 20.5 5.1735 20.5 6.001V19.499C20.5 19.8969 20.342 20.2786 20.0607 20.56C19.7794 20.8415 19.3979 20.9997 19 21H5C4.60218 21 4.22064 20.842 3.93934 20.5607C3.65804 20.2794 3.5 19.8978 3.5 19.5V6C3.5 5.60218 3.65804 5.22064 3.93934 4.93934C4.22064 4.65804 4.60218 4.5 5 4.5H7.5V5.5H5ZM15.5 5.5H9.5V4.5H15.5V5.5Z" fill="#3A3939"/>
<path fill-rule="evenodd" clip-rule="evenodd" d="M19.5 10H4.5V9H19.5V10Z" fill="#3A3939"/>
<path d="M7.5 3.5C7.5 3.36739 7.55268 3.24021 7.64645 3.14645C7.74021 3.05268 7.86739 3 8 3C8.13261 3 8.25979 3.05268 8.35355 3.14645C8.44732 3.24021 8.5 3.36739 8.5 3.5V7C8.5 7.13261 8.44732 7.25979 8.35355 7.35355C8.25979 7.44732 8.13261 7.5 8 7.5C7.86739 7.5 7.74021 7.44732 7.64645 7.35355C7.55268 7.25979 7.5 7.13261 7.5 7V3.5ZM15.5 3.5C15.5 3.36739 15.5527 3.24021 15.6464 3.14645C15.7402 3.05268 15.8674 3 16 3C16.1326 3 16.2598 3.05268 16.3536 3.14645C16.4473 3.24021 16.5 3.36739 16.5 3.5V7C16.5 7.13261 16.4473 7.25979 16.3536 7.35355C16.2598 7.44732 16.1326 7.5 16 7.5C15.8674 7.5 15.7402 7.44732 15.6464 7.35355C15.5527 7.25979 15.5 7.13261 15.5 7V3.5Z" fill="#3A3939"/>
</svg>
