<svg width="20" height="20" viewBox="0 0 20 20" fill="none" xmlns="http://www.w3.org/2000/svg">
<path d="M3.84583 17.5C3.4625 17.5 3.1425 17.3717 2.88583 17.115C2.62861 16.8578 2.5 16.5375 2.5 16.1542V3.84583C2.5 3.4625 2.62861 3.1425 2.88583 2.88583C3.1425 2.62861 3.4625 2.5 3.84583 2.5H16.1542C16.5375 2.5 16.8575 2.62861 17.1142 2.88583C17.3714 3.1425 17.5 3.4625 17.5 3.84583V16.1542C17.5 16.5375 17.3717 16.8575 17.115 17.1142C16.8578 17.3714 16.5375 17.5 16.1542 17.5H3.84583ZM3.84583 16.6667H16.1542C16.2819 16.6667 16.3994 16.6133 16.5067 16.5067C16.6133 16.3994 16.6667 16.2819 16.6667 16.1542V3.84583C16.6667 3.71806 16.6133 3.60056 16.5067 3.49333C16.3994 3.38667 16.2819 3.33333 16.1542 3.33333H3.84583C3.71806 3.33333 3.60056 3.38667 3.49333 3.49333C3.38667 3.60056 3.33333 3.71806 3.33333 3.84583V16.1542C3.33333 16.2819 3.38667 16.3994 3.49333 16.5067C3.60056 16.6133 3.71806 16.6667 3.84583 16.6667ZM7.17917 11.475C7.00694 11.475 6.85722 11.4111 6.73 11.2833C6.60222 11.1556 6.53833 11.0056 6.53833 10.8333C6.53833 10.6611 6.60222 10.5111 6.73 10.3833C6.85778 10.2556 7.00778 10.1917 7.18 10.1917C7.35167 10.1917 7.50139 10.2556 7.62917 10.3833C7.75694 10.5111 7.82083 10.6611 7.82083 10.8333C7.82083 11.0056 7.75694 11.1556 7.62917 11.2833C7.50139 11.4111 7.35139 11.475 7.17917 11.475ZM12.8208 11.475C12.6486 11.475 12.4986 11.4111 12.3708 11.2833C12.2431 11.1556 12.1792 11.0056 12.1792 10.8333C12.1792 10.6611 12.2431 10.5111 12.3708 10.3833C12.4986 10.2556 12.6486 10.1917 12.8208 10.1917C12.9931 10.1917 13.1428 10.2556 13.27 10.3833C13.3978 10.5111 13.4617 10.6611 13.4617 10.8333C13.4617 11.0056 13.3978 11.1556 13.27 11.2833C13.1422 11.4111 12.9922 11.475 12.82 11.475M5 9.3775V14.2042C5 14.3131 5.03583 14.4033 5.1075 14.475C5.17917 14.5467 5.26944 14.5825 5.37833 14.5825H5.455C5.56389 14.5825 5.65417 14.5467 5.72583 14.475C5.7975 14.4033 5.83333 14.3133 5.83333 14.205V12.9167H14.1667V14.205C14.1667 14.3139 14.2025 14.4042 14.2742 14.4758C14.3458 14.5475 14.4361 14.5833 14.545 14.5833H14.6217C14.7306 14.5833 14.8208 14.5475 14.8925 14.4758C14.9642 14.4042 15 14.3139 15 14.205V9.37833L13.7533 5.795C13.7161 5.675 13.6494 5.58194 13.5533 5.51583C13.4572 5.44972 13.3497 5.41667 13.2308 5.41667H6.76917C6.64972 5.41667 6.54222 5.45 6.44667 5.51667C6.35111 5.58333 6.28444 5.67611 6.24667 5.795L5 9.3775ZM6.08667 8.74917L6.95833 6.24917H13.0417L13.9133 8.74917H6.08667ZM5.83333 12.0833V9.58333H14.1667V12.0833H5.83333Z" fill="#F7AD01"/>
</svg>
