<svg width="20" height="20" viewBox="0 0 20 20" fill="none" xmlns="http://www.w3.org/2000/svg">
<g clip-path="url(#clip0_6001_13393)">
<path d="M1.86852 5.71166L9.57435 1.09166C9.70386 1.01395 9.85206 0.9729 10.0031 0.9729C10.1541 0.9729 10.3023 1.01395 10.4318 1.09166L18.1302 5.71249C18.1919 5.7495 18.2431 5.80189 18.2786 5.86455C18.3141 5.9272 18.3327 5.99798 18.3327 6.06999V16.6667C18.3327 16.8877 18.2449 17.0996 18.0886 17.2559C17.9323 17.4122 17.7204 17.5 17.4993 17.5H2.49935C2.27834 17.5 2.06637 17.4122 1.91009 17.2559C1.75381 17.0996 1.66602 16.8877 1.66602 16.6667V6.06916C1.666 5.99715 1.68465 5.92637 1.72014 5.86371C1.75563 5.80106 1.80675 5.74867 1.86852 5.71166ZM3.33268 6.77749V15.8333H16.666V6.77666L10.0027 2.77666L3.33268 6.77666V6.77749ZM10.0493 11.415L14.4627 7.69583L15.536 8.97083L10.061 13.585L4.46935 8.97666L5.52935 7.68999L10.0493 11.415Z" fill="#F7AD01"/>
</g>
<defs>
<clipPath id="clip0_6001_13393">
<rect width="20" height="20" fill="white"/>
</clipPath>
</defs>
</svg>
