<svg width="21" height="21" viewBox="0 0 21 21" fill="none" xmlns="http://www.w3.org/2000/svg">
<g clip-path="url(#clip0_6038_6286)">
<path d="M19.4521 11.1252C19.128 11.1252 18.8652 10.8623 18.8652 10.5381C18.865 5.6613 14.8975 1.69359 10.0207 1.69359C9.69641 1.69359 9.43359 1.43078 9.43359 1.10666C9.43359 0.782389 9.69641 0.519577 10.0207 0.519577C12.6967 0.519577 15.2126 1.56165 17.1048 3.45393C18.997 5.3462 20.039 7.8621 20.0392 10.5381C20.0392 10.8623 19.7764 11.1252 19.4521 11.1252Z" fill="#3A3939"/>
<path d="M16.3083 11.1252C15.9842 11.1252 15.7214 10.8623 15.7214 10.5381C15.7212 7.39488 13.1639 4.83754 10.0205 4.83739C9.69641 4.83739 9.43359 4.57458 9.43359 4.25046C9.43359 3.92619 9.69641 3.66338 10.0207 3.66338C13.8112 3.66353 16.8952 6.74756 16.8954 10.5381C16.8954 10.8623 16.6326 11.1252 16.3083 11.1252Z" fill="#FFCD57"/>
<path d="M13.1645 10.8178C12.8402 10.8178 12.5774 10.555 12.5774 10.2307C12.5774 8.82097 11.4304 7.67402 10.0207 7.67402C9.69641 7.67402 9.43359 7.4112 9.43359 7.08708C9.43359 6.76281 9.69641 6.5 10.0207 6.5C12.0778 6.5 13.7514 8.17365 13.7514 10.2307C13.7514 10.555 13.4886 10.8178 13.1645 10.8178Z" fill="#A1A1A1"/>
<path d="M16.2425 15.0047L14.6046 13.3668C14.1969 12.959 13.6547 12.7344 13.078 12.7344C12.5024 12.7344 11.961 12.9583 11.5535 13.3648C11.5528 13.3654 11.5521 13.366 11.5515 13.3668C11.5509 13.3674 11.5504 13.3678 11.5499 13.3683L10.4969 14.4214L6.13561 10.06L7.18762 9.00783C7.18885 9.00676 7.19007 9.00554 7.19114 9.00431C8.03186 8.16252 8.03156 6.79373 7.19007 5.95224L5.55954 4.32155C5.55801 4.32002 5.55648 4.3185 5.55495 4.31697C5.14735 3.91014 4.60568 3.68616 4.02975 3.68616C3.45643 3.68616 2.91705 3.90815 2.50991 4.31162C2.50762 4.31376 2.50532 4.31605 2.50318 4.31834C2.50043 4.32094 2.49783 4.32369 2.49523 4.32629L1.03761 5.78407C-0.0432955 6.86482 -0.28929 8.60941 0.34473 10.6963C0.940376 12.6566 2.25459 14.7226 4.0452 16.5133C6.53923 19.0074 9.58045 20.5567 11.982 20.5567C13.1312 20.5567 14.0969 20.1987 14.774 19.5215C14.7942 19.5013 15.5479 18.7476 16.2351 18.0604C16.2379 18.0576 16.2408 18.0547 16.2437 18.0518C17.0791 17.2125 17.0801 15.8477 16.2425 15.0047Z" fill="#3A3939"/>
<path d="M15.7216 10.5381C15.7216 10.8623 15.9844 11.1252 16.3085 11.1252C16.6328 11.1252 16.8956 10.8623 16.8956 10.5381C16.8956 8.64228 16.1241 6.92322 14.8785 5.67827L14.0488 6.50814C15.0817 7.54043 15.7214 8.96594 15.7216 10.5381Z" fill="#FFCD57"/>
<path d="M4.04486 16.5133C6.5389 19.0074 9.58012 20.5567 11.9817 20.5567C13.1309 20.5567 14.0965 20.1985 14.7737 19.5214C14.7939 19.5013 15.5476 18.7476 16.2348 18.0604C16.2376 18.0575 16.2405 18.0546 16.2434 18.0518C17.0789 17.2125 17.0798 15.8477 16.2421 15.0047L14.6044 13.3668C14.1965 12.959 13.6544 12.7344 13.0777 12.7344C12.5021 12.7344 11.9607 12.9583 11.5531 13.3646C11.5525 13.3654 11.5519 13.366 11.5511 13.3668C11.5505 13.3672 11.5501 13.3678 11.5496 13.3683L10.4967 14.4214L8.3159 12.2405L4.04395 16.5124C4.04425 16.5127 4.04456 16.513 4.04486 16.5133Z" fill="#FFC328"/>
</g>
<defs>
<clipPath id="clip0_6038_6286">
<rect width="20.0391" height="20" fill="white" transform="translate(0 0.5)"/>
</clipPath>
</defs>
</svg>
