<svg width="47" height="26" viewBox="0 0 47 26" fill="none" xmlns="http://www.w3.org/2000/svg">
<path d="M18.0687 0.751093C6.63059 0.751093 0.250759 8.30611 0 8.47264V11.8099L0.921569 13.1923L0 14.5746V21.4864H22.1176L23.5 9.04521L24.1912 5.24374L23.5 0.822146C22.119 0.707134 21.502 0.768695 18.0687 0.751093Z" fill="#FFCD57"/>
<path d="M45.9248 13.1923L46.2561 11.8099C45.2985 10.159 43.5128 9.04524 41.4706 9.04524H38.0467C34.6161 4.29123 29.3093 1.30627 23.5 0.822266V9.04533L24.8824 21.4865H47V14.5747L45.9248 13.1923Z" fill="black"/>
<path d="M42.8535 11.8101V14.5748H47.0006C47.0006 13.568 46.7288 12.6241 46.2567 11.8101H42.8535Z" fill="#FFCB00"/>
<path d="M11.0607 25.6334C14.1145 25.6334 16.5901 23.1578 16.5901 20.104C16.5901 17.0502 14.1145 14.5746 11.0607 14.5746C8.00685 14.5746 5.53125 17.0502 5.53125 20.104C5.53125 23.1578 8.00685 25.6334 11.0607 25.6334Z" fill="#006181"/>
<path d="M11.0577 22.8689C12.5846 22.8689 13.8224 21.6311 13.8224 20.1042C13.8224 18.5773 12.5846 17.3395 11.0577 17.3395C9.53077 17.3395 8.29297 18.5773 8.29297 20.1042C8.29297 21.6311 9.53077 22.8689 11.0577 22.8689Z" fill="#F4F1F1"/>
<path d="M35.9415 25.6334C38.9953 25.6334 41.4709 23.1578 41.4709 20.104C41.4709 17.0502 38.9953 14.5746 35.9415 14.5746C32.8877 14.5746 30.4121 17.0502 30.4121 20.104C30.4121 23.1578 32.8877 25.6334 35.9415 25.6334Z" fill="#004761"/>
<path d="M35.9424 22.8689C37.4693 22.8689 38.7071 21.6311 38.7071 20.1042C38.7071 18.5773 37.4693 17.3395 35.9424 17.3395C34.4155 17.3395 33.1777 18.5773 33.1777 20.1042C33.1777 21.6311 34.4155 22.8689 35.9424 22.8689Z" fill="#ECEAE7"/>
<path d="M34.4793 9.04548H24.8809V3.78894C28.5664 4.44943 31.9338 6.29082 34.4793 9.04548Z" fill="#F4F1F1"/>
<path d="M18.0695 3.51595C22.6142 3.51927 21.5693 3.51125 22.1184 3.52056V9.04536H16.6517C13.3778 9.04536 10.2285 8.01818 7.60742 6.12334C10.7888 4.42065 14.3596 3.51595 18.0695 3.51595Z" fill="#F4F1F1"/>
<path d="M0 11.8101H4.14706V14.5748H0V11.8101Z" fill="#FFE705"/>
<path d="M22.1191 9.04517V21.4863H23.5015L24.4231 15.381L23.5015 9.04517H22.1191Z" fill="black"/>
<path d="M23.5 9.04517H24.8824V21.4863H23.5V9.04517Z" fill="black"/>
</svg>
