<svg width="40" height="39" viewBox="0 0 40 39" fill="none" xmlns="http://www.w3.org/2000/svg">
<path d="M32.4308 24.0936L31.2614 29.122L25.9246 30.585L22.4648 26.2186L28.5215 20.5993C29.0594 20.0515 29.7782 19.7894 30.4897 19.8156C31.1209 19.8386 31.7472 20.0875 32.2327 20.5666C33.2077 21.5247 33.2756 23.0552 32.4308 24.0936Z" fill="#F59280"/>
<path d="M19.892 29.8415L22.7582 34.3008L19.892 38.8601C16.2308 39.1648 12.5238 38.4417 9.20643 36.7261C8.3804 36.2978 7.50926 35.9735 6.61199 35.7557C5.71554 35.537 4.79124 35.4257 3.86196 35.4257H1.53857C0.860357 35.4257 0.310547 34.8757 0.310547 34.1973V31.4696L12.1767 28.89L19.892 29.8415Z" fill="#FFCCBD"/>
<path d="M38.9313 25.0179L30.8622 33.7679C29.9773 34.735 28.9768 35.5801 27.8838 36.2835C26.7917 36.9886 25.6087 37.5528 24.3626 37.9582C22.9005 38.4348 21.4006 38.7345 19.8926 38.8598V29.8413L25.9271 30.5848L32.4325 24.095L32.4333 24.0934L35.0564 21.4762C35.5738 20.9095 36.2828 20.6221 36.9943 20.6221C37.6263 20.6221 38.2608 20.8489 38.7643 21.3091C39.8343 22.2877 39.9088 23.9476 38.9313 25.0179Z" fill="#FFA68C"/>
<path d="M19.892 26.2185L22.7582 29.1875L19.892 31.4693H0.310547V26.8345C0.310547 26.4347 0.504299 26.0599 0.83145 25.8301C2.87477 24.3949 10.591 19.7965 17.924 26.2185H19.892Z" fill="#FFDDCE"/>
<path d="M26.5878 28.8441C26.5878 29.0906 26.5534 29.3298 26.4896 29.5558C26.3806 29.9423 26.1858 30.2928 25.9271 30.5851C25.7192 30.8193 25.4695 31.0167 25.1903 31.1649C24.8243 31.359 24.4068 31.4695 23.9631 31.4695H19.8926V26.2188H23.9631C24.6877 26.2188 25.3434 26.5127 25.819 26.9877C26.2939 27.4627 26.5878 28.1194 26.5878 28.8441Z" fill="#FFCCBD"/>
<path d="M19.8921 0.99121L22.9147 4.46867L19.8921 7.45234H10.0449L13.3459 0.749634L19.8921 0.99121Z" fill="#E6F2F2"/>
<path d="M27.4041 7.45221H19.8926V0.991089L24.1031 1.1L27.4041 7.45221Z" fill="#B9D9D9"/>
<path d="M19.8943 0.000366211L22.6546 1.0389L19.8943 2.45707H13.7492L11.1236 7.86345C10.8273 8.47353 10.0929 8.72821 9.48298 8.43177C8.87224 8.13532 8.61846 7.40077 8.91482 6.78987L11.8752 0.692337C12.0808 0.268966 12.5097 0.000366211 12.9805 0.000366211L19.8943 0.000366211Z" fill="#FFBB33"/>
<path d="M28.009 8.43152C27.8363 8.51505 27.6537 8.55518 27.4736 8.55518C27.0184 8.55518 26.5805 8.3005 26.3684 7.86321L23.7429 2.45682H19.8926V0.00012207H24.5117C24.9825 0.00012207 25.4114 0.268721 25.6169 0.692093L28.5773 6.78963C28.8736 7.40053 28.619 8.13508 28.009 8.43152Z" fill="#FF884D"/>
<path d="M19.8908 6.09851L23.9357 9.2462L19.8908 14.7536H5.3999C4.72201 14.7536 4.17188 14.2033 4.17188 13.5252V7.32686C4.17188 6.64799 4.72201 6.09851 5.3999 6.09851H19.8908Z" fill="#FFE14D"/>
<path d="M35.2022 11.2061V13.5252C35.2022 14.2033 34.652 14.7536 33.9741 14.7536H19.8926V6.09851H30.0952C32.9115 6.09851 35.2022 8.3898 35.2022 11.2061Z" fill="#FFBB33"/>
<path d="M11.2961 17.0973C12.5901 17.0973 13.639 16.048 13.639 14.7536C13.639 13.4593 12.5901 12.41 11.2961 12.41C10.0021 12.41 8.95312 13.4593 8.95312 14.7536C8.95312 16.048 10.0021 17.0973 11.2961 17.0973Z" fill="#E6F2F2"/>
<path d="M28.2433 17.0973C29.5373 17.0973 30.5863 16.048 30.5863 14.7536C30.5863 13.4593 29.5373 12.41 28.2433 12.41C26.9494 12.41 25.9004 13.4593 25.9004 14.7536C25.9004 16.048 26.9494 17.0973 28.2433 17.0973Z" fill="#B9D9D9"/>
<path d="M11.2955 18.4386C9.26403 18.4386 7.61133 16.7855 7.61133 14.7535C7.61133 12.7216 9.26403 11.0685 11.2955 11.0685C13.3269 11.0685 14.9796 12.7216 14.9796 14.7535C14.9796 16.7855 13.3269 18.4386 11.2955 18.4386ZM11.2955 13.5252C10.6183 13.5252 10.0675 14.0762 10.0675 14.7535C10.0675 15.4308 10.6183 15.9819 11.2955 15.9819C11.9726 15.9819 12.5235 15.4308 12.5235 14.7535C12.5235 14.0762 11.9726 13.5252 11.2955 13.5252Z" fill="#4D628C"/>
<path d="M28.2447 18.4388C26.2133 18.4388 24.5605 16.7857 24.5605 14.7538C24.5605 12.7218 26.2133 11.0687 28.2447 11.0687C30.2761 11.0687 31.9289 12.7218 31.9289 14.7538C31.9289 16.7857 30.2761 18.4388 28.2447 18.4388ZM28.2447 13.5254C27.5675 13.5254 27.0167 14.0765 27.0167 14.7538C27.0167 15.4311 27.5675 15.9821 28.2447 15.9821C28.9218 15.9821 29.4727 15.4311 29.4727 14.7538C29.4727 14.0765 28.9218 13.5254 28.2447 13.5254Z" fill="#283D66"/>
</svg>
