<svg width="48" height="41" viewBox="0 0 48 41" fill="none" xmlns="http://www.w3.org/2000/svg">
<path d="M44.4877 36.4952H3.51225C1.57566 36.4952 0 34.9523 0 33.056V29.6213L0.979313 28.3693L0 26.8674V26.0636C0 24.0319 1.48791 22.3292 3.53784 22.0149L5.77763 21.6717L9.03516 17.4154C9.93084 16.2451 11.3573 15.5464 12.8508 15.5464H24.7278C25.9376 15.5464 27.113 15.8882 28.1268 16.5349L36.1324 21.6414L42.4717 22.785C45.6749 23.363 48 26.0973 48 29.2867V33.0561C47.9999 34.9523 46.4243 36.4952 44.4877 36.4952Z" fill="#FFCD57"/>
<path d="M42.4732 22.785L36.1339 21.6414L28.1283 16.5349C27.1145 15.8882 25.9392 15.5464 24.7293 15.5464H21.8633V36.4953H44.4891C46.4258 36.4953 48.0013 34.9524 48.0013 33.0561V29.2867C48.0015 26.0973 45.6765 23.363 42.4732 22.785Z" fill="#2D2D2D"/>
<path d="M24.726 18.3003H12.849C12.2364 18.3003 11.6514 18.5869 11.284 19.0669L8.32031 22.9393H33.0127L26.5898 18.8424C26.034 18.4877 25.3895 18.3003 24.726 18.3003Z" fill="#F9F9F9"/>
<path d="M21.8633 22.9392H33.0161L26.5932 18.8423C26.0372 18.4877 25.3927 18.3003 24.7293 18.3003H21.8633V22.9392Z" fill="#E2DFF4"/>
<path d="M10.1562 39.2491C7.83003 39.2491 5.9375 37.396 5.9375 35.1183C5.9375 32.8405 7.83003 30.9874 10.1562 30.9874C12.4825 30.9874 14.375 32.8405 14.375 35.1183C14.375 37.396 12.4825 39.2491 10.1562 39.2491Z" fill="#00607F"/>
<path d="M10.1562 36.4952C10.9329 36.4952 11.5625 35.8788 11.5625 35.1183C11.5625 34.3578 10.9329 33.7413 10.1562 33.7413C9.3796 33.7413 8.75 34.3578 8.75 35.1183C8.75 35.8788 9.3796 36.4952 10.1562 36.4952Z" fill="#E2DFF4"/>
<path d="M2.12634 26.8676H0V29.6215H2.12634C2.90297 29.6215 3.53259 29.005 3.53259 28.2445C3.53259 27.4841 2.90297 26.8676 2.12634 26.8676Z" fill="#FFDF40"/>
<path d="M37.8438 39.2491C35.5175 39.2491 33.625 37.396 33.625 35.1183C33.625 32.8405 35.5175 30.9874 37.8438 30.9874C40.17 30.9874 42.0625 32.8405 42.0625 35.1183C42.0625 37.396 40.17 39.2491 37.8438 39.2491Z" fill="#002C3C"/>
<path d="M37.8438 36.4952C38.6204 36.4952 39.25 35.8788 39.25 35.1183C39.25 34.3578 38.6204 33.7413 37.8438 33.7413C37.0671 33.7413 36.4375 34.3578 36.4375 35.1183C36.4375 35.8788 37.0671 36.4952 37.8438 36.4952Z" fill="#BEBCDD"/>
<path d="M29.5476 7.27584C29.5476 4.70956 28.2352 2.44356 26.232 1.0857C25.6566 0.695654 24.8698 1.11159 24.8698 1.79685V4.8166C24.8698 6.44232 23.5239 7.76016 21.8636 7.76016C20.2033 7.76016 18.8574 6.44232 18.8574 4.8166V1.79685C18.8574 1.11159 18.0707 0.695654 17.4952 1.0857C15.492 2.44356 14.1797 4.70956 14.1797 7.27584C14.1797 10.3865 16.1078 13.0559 18.8574 14.2016V37.1212C18.8574 38.7469 20.2033 40.0648 21.8636 40.0648C23.5239 40.0648 24.8698 38.7469 24.8698 37.1212V14.2016C27.6195 13.0559 29.5476 10.3865 29.5476 7.27584Z" fill="#E2DFF4"/>
<path d="M41.9643 25.4932L39.0874 24.9742C38.8042 24.923 38.543 25.136 38.543 25.418V25.8172C38.543 28.286 40.5869 30.2874 43.1082 30.2874H44.7289C44.9834 30.2874 45.1898 30.0853 45.1898 29.8361V29.2866C45.1898 27.4257 43.8333 25.8304 41.9643 25.4932Z" fill="#FFBE40"/>
<path d="M26.2317 1.0857C25.6562 0.695654 24.8695 1.11159 24.8695 1.79685V4.8166C24.8695 6.44232 23.5235 7.76016 21.8633 7.76016V40.0648C23.5236 40.0648 24.8695 38.7469 24.8695 37.1213V14.2016C27.6192 13.0559 29.5472 10.3865 29.5472 7.27584C29.5472 4.70956 28.2349 2.44356 26.2317 1.0857Z" fill="#BEBCDD"/>
</svg>
