<svg width="20" height="11" viewBox="0 0 20 11" fill="none" xmlns="http://www.w3.org/2000/svg">
<path d="M17.6573 3.45301H2.64453L4.49254 0.681914C4.64922 0.446992 5.02809 0.292969 5.44934 0.292969H14.8525C15.2737 0.292969 15.6527 0.446992 15.8093 0.681914L17.6573 3.45301Z" fill="#BBF7FF"/>
<path d="M15.7988 0.681914C15.6421 0.446992 15.2632 0.292969 14.842 0.292969H13.6348C14.056 0.292969 14.4349 0.446992 14.5916 0.681914L16.4396 3.45301H17.6468L15.7988 0.681914Z" fill="#8BF0FF"/>
<path d="M17.9011 3.29047L16.0531 0.519375C15.8394 0.199024 15.3794 0 14.8526 0H5.4494C4.92252 0 4.46248 0.199024 4.24889 0.519375L2.40084 3.29047C2.31104 3.42508 2.3474 3.60699 2.48201 3.69676C2.53197 3.73008 2.58846 3.74602 2.64428 3.74602C2.73893 3.74602 2.83186 3.7002 2.88826 3.61555L4.73635 0.844453C4.82197 0.715976 5.09444 0.585938 5.4494 0.585938H14.8526C15.2075 0.585938 15.48 0.716015 15.5656 0.844453L17.4136 3.61555C17.5034 3.7502 17.6854 3.78652 17.8199 3.69676C17.9545 3.60699 17.9908 3.42512 17.9011 3.29047Z" fill="#FFC328"/>
<path d="M3.37832 10.6641H1.35102C1.15609 10.6641 0.998047 10.506 0.998047 10.3111V7.75317H3.73125V10.3111C3.73125 10.506 3.57324 10.6641 3.37832 10.6641Z" fill="#455A64"/>
<path d="M2.5248 7.75317V10.3111C2.5248 10.506 2.3668 10.6641 2.17188 10.6641H3.3791C3.57402 10.6641 3.73203 10.506 3.73203 10.3111V7.75317H2.5248Z" fill="#37474F"/>
<path d="M18.6498 10.6641H16.6225C16.4276 10.6641 16.2695 10.506 16.2695 10.3111V7.75317H19.0027V10.3111C19.0028 10.506 18.8447 10.6641 18.6498 10.6641Z" fill="#455A64"/>
<path d="M17.7963 7.75317V10.3111C17.7963 10.506 17.6383 10.6641 17.4434 10.6641H18.6506C18.8455 10.6641 19.0035 10.506 19.0035 10.3111V7.75317H17.7963Z" fill="#37474F"/>
<path d="M19.2756 8.91192H0.724414C0.324336 8.91192 0 8.58763 0 8.18755V5.43915C0 4.24481 0.968203 3.27661 2.16254 3.27661H17.8374C19.0318 3.27661 20 4.24481 20 5.43915V8.18755C20 8.58763 19.6757 8.91192 19.2756 8.91192Z" fill="#FFC328"/>
<path d="M17.8381 3.27661H16.6309C17.825 3.27661 18.7931 4.24493 18.7931 5.43946V8.18747C18.7931 8.58759 18.4688 8.91196 18.0688 8.91196H19.2761C19.6761 8.91196 20.0004 8.58759 20.0004 8.18747V5.43946C20.0004 4.24497 19.0323 3.27661 17.8381 3.27661Z" fill="#FFC328"/>
<path d="M15.3921 8.90861H4.60742V7.47385C4.60742 7.29603 4.75156 7.15186 4.92941 7.15186H15.0702C15.248 7.15186 15.3921 7.296 15.3921 7.47385V8.90861H15.3921Z" fill="#455A64"/>
<path d="M14.3329 5.29814H5.66676C5.08172 5.29814 4.60742 4.82388 4.60742 4.2388V3.27661H15.3921V4.2388C15.3921 4.82384 14.9179 5.29814 14.3329 5.29814Z" fill="#FFC328"/>
<path d="M7.83203 3.27661H9.11977V5.2981H7.83203V3.27661Z" fill="#F3F3F3"/>
<path d="M10.8809 3.27661H12.1686V5.2981H10.8809V3.27661Z" fill="#F3F3F3"/>
<path d="M3.23417 6.58783C2.82444 6.99768 1.75999 6.59736 1.35026 6.18752C0.940537 5.77768 0.940537 5.11322 1.35026 4.70338C1.75999 4.29354 2.42429 4.29354 2.83401 4.70338C3.2437 5.11322 3.6439 6.17799 3.23417 6.58783Z" fill="#3C4043"/>
<path d="M16.7674 6.58783C17.1771 6.99768 18.2416 6.59736 18.6513 6.18752C19.061 5.77768 19.061 5.11322 18.6513 4.70338C18.2416 4.29354 17.5773 4.29354 17.1676 4.70338C16.7579 5.11322 16.3577 6.17799 16.7674 6.58783Z" fill="#3C4043"/>
</svg>
