<svg width="20" height="12" viewBox="0 0 20 12" fill="none" xmlns="http://www.w3.org/2000/svg">
<path d="M20 4.71205V9.94236H0V3.92062H2.59912L4.31063 0.256348H12.3109L15.6245 3.96363L20 4.71205Z" fill="#F9DC98"/>
<path d="M20.0003 4.71205V9.94236H8.70996V0.256348H12.3113L15.6248 3.96363L20.0003 4.71205Z" fill="#FFCD57"/>
<path d="M15.587 3.92101H14.0135L8.71011 3.92062H2.59961L4.31111 0.256348H12.3114L15.587 3.92101Z" fill="#D9D9D9"/>
<path d="M5.37437 11.1572C6.39014 11.1572 7.21358 10.3337 7.21358 9.31797C7.21358 8.3022 6.39014 7.47876 5.37437 7.47876C4.3586 7.47876 3.53516 8.3022 3.53516 9.31797C3.53516 10.3337 4.3586 11.1572 5.37437 11.1572Z" fill="#D9D9D9"/>
<path d="M5.37399 11.7438C4.03642 11.7438 2.94824 10.6556 2.94824 9.31808C2.94824 7.98051 4.03642 6.89233 5.37399 6.89233C6.71156 6.89233 7.79973 7.98051 7.79973 9.31808C7.79973 10.6556 6.71156 11.7438 5.37399 11.7438ZM5.37399 8.0654C4.68325 8.0654 4.12131 8.62734 4.12131 9.31808C4.12131 10.0088 4.68325 10.5708 5.37399 10.5708C6.06473 10.5708 6.62667 10.0088 6.62667 9.31808C6.62667 8.62734 6.06473 8.0654 5.37399 8.0654Z" fill="#57555C"/>
<path d="M15.098 11.1572C16.1138 11.1572 16.9372 10.3337 16.9372 9.31797C16.9372 8.3022 16.1138 7.47876 15.098 7.47876C14.0822 7.47876 13.2588 8.3022 13.2588 9.31797C13.2588 10.3337 14.0822 11.1572 15.098 11.1572Z" fill="#D9D9D9"/>
<path d="M15.0976 11.7438C13.7601 11.7438 12.6719 10.6556 12.6719 9.31808C12.6719 7.98051 13.7601 6.89233 15.0976 6.89233C16.4352 6.89233 17.5234 7.98051 17.5234 9.31808C17.5234 10.6556 16.4352 11.7438 15.0976 11.7438ZM15.0976 8.0654C14.4069 8.0654 13.8449 8.62734 13.8449 9.31808C13.8449 10.0088 14.4069 10.5708 15.0976 10.5708C15.7884 10.5708 16.3503 10.0088 16.3503 9.31808C16.3503 8.62734 15.7884 8.0654 15.0976 8.0654Z" fill="#3C3A41"/>
<path d="M15.5869 3.92101H14.0134L8.70996 3.92062V0.256348H12.3113L15.5869 3.92101Z" fill="#D9D9D9"/>
<path d="M15.587 3.92101H14.0135L11.7867 1.42941H9.29664V3.92101H8.12358V1.42941H5.05757L3.89389 3.92062H2.59961L4.31111 0.256348H12.3114L15.587 3.92101Z" fill="#57555C"/>
<path d="M15.5869 3.92101H14.0134L11.7865 1.42941H9.29649V3.92101H8.70996V0.256348H12.3113L15.5869 3.92101Z" fill="#3C3A41"/>
</svg>
