<svg width="41" height="36" viewBox="0 0 41 36" fill="none" xmlns="http://www.w3.org/2000/svg">
<path fill-rule="evenodd" clip-rule="evenodd" d="M34.3007 8.8062C34.3007 7.60461 33.3343 6.62122 32.1564 6.62122H28.5552L27.4902 9.65227L31.0794 10.9936H32.1564C33.3343 10.9936 34.3007 10.0103 34.3007 8.8062Z" fill="#E8EAEA"/>
<path fill-rule="evenodd" clip-rule="evenodd" d="M5.76115 6.62122H2.15755C0.979606 6.62122 0.015625 7.60461 0.015625 8.8062C0.015625 10.0103 0.979606 10.9936 2.15755 10.9936H3.23693L6.55681 9.65227L5.76115 6.62122Z" fill="#E8EAEA"/>
<path fill-rule="evenodd" clip-rule="evenodd" d="M27.0085 2.03057C26.7825 1.36603 25.8618 0.527344 24.5781 0.527344H17.157H9.7359C8.45457 0.527344 7.53143 1.36603 7.30785 2.03057L5.7597 6.62128L4.85097 9.31634L3.23548 10.9937L2.2763 11.9893C1.33875 13.2008 1.47576 14.2087 1.47576 15.6874L1.48297 20.2903L16.1906 21.5017L25.6431 20.2903C27.1408 20.1897 29.0279 20.3761 30.1025 20.1775C31.9728 19.8293 32.5618 18.8655 32.8382 17.1465V15.6874C32.8382 14.2086 32.9776 13.2008 32.0401 11.9893L31.0809 10.9937L29.4654 9.31634L28.5567 6.62128L27.0085 2.03057Z" fill="#FFCD57"/>
<path fill-rule="evenodd" clip-rule="evenodd" d="M23.8019 3.69836H17.1548H10.5103C10.2386 3.69836 10.1088 3.95832 10.0175 4.23788L8.43809 9.11308C8.34672 9.39265 8.65927 9.6526 8.92849 9.6526H17.1549H25.3837C25.653 9.6526 25.9655 9.39265 25.8741 9.11308L24.2923 4.23788C24.2034 3.95832 24.0711 3.69836 23.8019 3.69836Z" fill="#4BC6A9"/>
<path fill-rule="evenodd" clip-rule="evenodd" d="M28.6319 13.1666H24.8552C24.4321 13.1666 24.0859 13.5198 24.0859 13.9513V15.4153C24.0859 15.847 24.4321 16.2001 24.8552 16.2001H28.6319C29.055 16.2001 29.4012 15.8469 29.4012 15.4153V13.9513C29.4012 13.5198 29.055 13.1666 28.6319 13.1666Z" fill="#E8EAEA"/>
<path fill-rule="evenodd" clip-rule="evenodd" d="M9.46197 13.1666H5.68533C5.26219 13.1666 4.91602 13.5198 4.91602 13.9513V15.4153C4.91602 15.847 5.26219 16.2001 5.68533 16.2001H9.46197C9.8851 16.2001 10.2313 15.8469 10.2313 15.4153V13.9513C10.2312 13.5198 9.88502 13.1666 9.46197 13.1666Z" fill="#E8EAEA"/>
<path fill-rule="evenodd" clip-rule="evenodd" d="M27.8064 20.2682L1.48276 20.2903C0.667883 20.2903 0.00195312 20.9696 0.00195312 21.8009V22.4336C0.00195312 23.2624 0.667883 23.9417 1.48284 23.9417H6.91101H27.5612C29.9749 23.5836 29.0902 20.2657 27.8064 20.2682Z" fill="#CECECE"/>
<path fill-rule="evenodd" clip-rule="evenodd" d="M6.9106 23.942L4.23254 22.6079L1.48242 23.942V26.9926C1.48242 27.6425 2.00405 28.1771 2.64355 28.1771H5.74954C6.38897 28.1771 6.91068 27.6425 6.91068 26.9926V23.942H6.9106Z" fill="#737A93"/>
<path fill-rule="evenodd" clip-rule="evenodd" d="M15.0563 8.1637H8.74583L8.43809 9.11272C8.34672 9.39228 8.65927 9.65224 8.92849 9.65224H17.1549H25.3837C25.653 9.65224 25.9655 9.39228 25.8741 9.11272L24.2923 4.23752C24.2033 3.95796 24.0711 3.698 23.8019 3.698H22.2898L23.4438 7.6241C23.5279 7.90612 23.2226 8.16362 22.9534 8.16362L15.0563 8.1637Z" fill="#60CDB3"/>
<path fill-rule="evenodd" clip-rule="evenodd" d="M28.5572 6.62128L27.009 2.03057C26.783 1.36603 25.8623 0.527344 24.5786 0.527344H22.5039C23.629 0.645059 24.4271 1.40278 24.6338 2.01588L26.182 6.60414L27.0907 9.29919L28.7062 10.9766L29.6654 11.9746C30.6029 13.1861 30.4659 14.194 30.4659 15.6702L30.4635 17.1318C30.4563 17.1759 30.4491 17.22 30.4419 17.2642C30.5525 17.1906 30.6823 17.1489 30.8217 17.1465H30.8289H30.9972H32.8386V15.6874C32.8386 14.2086 32.978 13.2008 32.0405 11.9893L31.0813 10.9937L29.4658 9.31634L28.5572 6.62128Z" fill="#2D2D2D"/>
<path fill-rule="evenodd" clip-rule="evenodd" d="M4.84906 6.91205L6.15095 2.32134C6.34099 1.6568 7.11527 0.818115 8.1948 0.818115H9.93945C8.99332 0.93583 8.32221 1.69355 8.14834 2.30665L6.84644 6.89491L6.08227 9.58996L4.72374 11.2673L3.91714 12.2654C3.12872 13.4768 3.24394 14.4848 3.24394 15.961L3.24596 17.4226C3.25202 17.4667 3.25808 17.5108 3.26414 17.555C3.17114 17.4814 3.06198 17.4397 2.94474 17.4372H2.93868H2.7972H1.24864V15.9781C1.24864 14.4994 1.1314 13.4915 1.91982 12.2801L2.72643 11.2845L4.08495 9.60711L4.84906 6.91205Z" fill="#2D2D2D"/>
<path fill-rule="evenodd" clip-rule="evenodd" d="M34.3006 8.80635C34.3006 7.91861 33.7741 7.14858 33.0241 6.80774C33.0529 6.9549 33.0697 7.10691 33.0697 7.26383C33.0697 8.46789 32.1057 9.45128 30.9278 9.45128H29.8484L29.459 9.30658L29.4638 9.31642L31.0793 10.9938H32.1563C33.3342 10.9938 34.3006 10.0104 34.3006 8.80635Z" fill="#474747"/>
<path fill-rule="evenodd" clip-rule="evenodd" d="M0.015625 8.80635C0.015625 7.91861 0.542059 7.14858 1.29215 6.80774C1.26092 6.9549 1.2441 7.10691 1.2441 7.26383C1.2441 8.46789 2.21049 9.45128 3.38844 9.45128H4.46781L4.85483 9.30658L4.85242 9.31642L3.23693 10.9938H2.15755C0.979605 10.9938 0.015625 10.0104 0.015625 8.80635Z" fill="#474747"/>
<path fill-rule="evenodd" clip-rule="evenodd" d="M6.91093 22.6078H1.48276C0.785598 22.6078 0.199025 22.11 0.042793 21.4479C0.0163672 21.5607 0.00195312 21.6784 0.00195312 21.801V22.4337C0.00195312 23.2626 0.667883 23.9419 1.48284 23.9419H6.91101H24.6909C24.8351 23.4784 25.0203 23.0296 25.2439 22.6078H6.91093Z" fill="#BAAFB9"/>
<path fill-rule="evenodd" clip-rule="evenodd" d="M6.91275 26.9928V23.9421H4.79244V26.9928C4.79244 27.6427 4.26841 28.1772 3.62891 28.1772H5.75162C6.39112 28.1772 6.91275 27.6427 6.91275 26.9928Z" fill="#606B82"/>
<path fill-rule="evenodd" clip-rule="evenodd" d="M24.0859 14.6846V15.4154C24.0859 15.847 24.4321 16.2001 24.8552 16.2001H28.6319C29.055 16.2001 29.4012 15.847 29.4012 15.4154V14.6846H24.0859Z" fill="#474747"/>
<path fill-rule="evenodd" clip-rule="evenodd" d="M4.91602 14.6846V15.4154C4.91602 15.847 5.26219 16.2001 5.68533 16.2001H9.46197C9.8851 16.2001 10.2313 15.847 10.2313 15.4154V14.6846H4.91602Z" fill="#474747"/>
<path fill-rule="evenodd" clip-rule="evenodd" d="M30.1144 18.7135C29.398 18.8999 28.7201 19.1893 28.0999 19.5645L27.5181 18.971C27.2417 18.689 26.7873 18.689 26.5108 18.971L24.8257 20.6901C24.5468 20.9721 24.5468 21.4356 24.8257 21.7176L25.4074 22.3135C25.0396 22.9462 24.7559 23.6352 24.5732 24.3661H23.7511C23.3569 24.3661 23.0371 24.6947 23.0371 25.0944V27.5247C23.0371 27.9244 23.3569 28.253 23.7511 28.253H24.5732C24.756 28.9838 25.0396 29.6754 25.4074 30.3081L24.8257 30.9016C24.5468 31.1836 24.5468 31.6471 24.8257 31.9291L26.5108 33.6481C26.7872 33.9326 27.2416 33.9326 27.5181 33.6481L28.0999 33.0546C28.7201 33.4299 29.398 33.7192 30.1144 33.9056V34.7443C30.1144 35.1465 30.4366 35.4727 30.8284 35.4727H33.2107C33.6025 35.4727 33.9247 35.1465 33.9247 34.7443V33.9056C34.6411 33.7193 35.3166 33.4299 35.9368 33.0546L36.521 33.6481C36.7974 33.9326 37.2518 33.9326 37.5283 33.6481L39.2134 31.9291C39.4899 31.6471 39.4899 31.1836 39.2134 30.9016L38.6317 30.3081C38.9995 29.6754 39.2832 28.9838 39.4659 28.253H40.288C40.6798 28.253 41.002 27.9244 41.002 27.5247V25.0944C41.002 24.6947 40.6798 24.3661 40.288 24.3661H39.4659C39.2831 23.6352 38.9995 22.9462 38.6317 22.3135L39.2134 21.7176C39.4899 21.4356 39.4899 20.9721 39.2134 20.6901L37.5283 18.971C37.2519 18.689 36.7975 18.689 36.521 18.971L35.9368 19.5645C35.3166 19.1893 34.6411 18.9 33.9247 18.7135V17.8748C33.9247 17.4751 33.6025 17.1465 33.2107 17.1465H30.8284C30.4366 17.1465 30.1144 17.4751 30.1144 17.8748V18.7135Z" fill="#737A93"/>
<path fill-rule="evenodd" clip-rule="evenodd" d="M27.4668 26.3111C27.4668 28.8737 29.5029 30.9508 32.0152 30.9508C34.5297 30.9508 36.5659 28.8737 36.5659 26.3111C36.5659 23.7459 34.5298 21.6688 32.0152 21.6688C29.503 21.6689 27.4668 23.7459 27.4668 26.3111Z" fill="#E8EAEA"/>
<path fill-rule="evenodd" clip-rule="evenodd" d="M33.5332 25.6045C33.5332 27.5369 33.2255 29.3492 32.6895 30.9015C34.8843 30.5705 36.5695 28.6405 36.5695 26.3108C36.5695 24.1331 35.0982 22.3062 33.1174 21.8059C33.3866 22.983 33.5332 24.2631 33.5332 25.6045Z" fill="#474747"/>
<path fill-rule="evenodd" clip-rule="evenodd" d="M33.1168 21.8058C35.0977 22.3061 36.5689 24.133 36.5689 26.3107C36.5689 28.6404 34.8837 30.5704 32.6889 30.9014C32.0879 32.6353 31.2008 34.0453 30.1406 34.9404C30.2248 35.247 30.5012 35.4726 30.8282 35.4726H33.2105C33.6023 35.4726 33.9245 35.1464 33.9245 34.7442V33.9055C34.8764 33.6579 35.2804 33.2287 35.6938 33.1968C35.9294 33.1796 36.1698 33.2924 36.5208 33.648C36.7972 33.9325 37.2516 33.9325 37.5281 33.648L39.2132 31.929C39.4897 31.6469 39.4897 31.1835 39.2132 30.9014L38.6315 30.3079C38.9993 29.6752 39.283 28.9837 39.4656 28.2529H40.2878C40.6796 28.2529 41.0018 27.9243 41.0018 27.5245V25.0943C41.0018 24.6945 40.6796 24.3659 40.2878 24.3659H39.4656C39.2829 23.6351 38.9993 22.9461 38.6315 22.3133L39.2132 21.7175C39.4897 21.4354 39.4897 20.972 39.2132 20.6899L37.5281 18.9709C37.2516 18.6889 36.7973 18.6889 36.5208 18.9709L35.9366 19.5644C35.3164 19.1892 34.6409 18.8999 33.9245 18.7134V17.8747C33.9245 17.475 33.6047 17.1488 33.2153 17.1464H33.2105H30.9964C31.9413 18.3088 32.6841 19.9224 33.1168 21.8058Z" fill="#606B82"/>
<path d="M21.1065 15.2H13.2046C12.8629 15.2 12.5859 14.9166 12.5859 14.567C12.5859 14.2174 12.8629 13.934 13.2046 13.934H21.1065C21.4483 13.934 21.7252 14.2174 21.7252 14.567C21.7252 14.9166 21.4483 15.2 21.1065 15.2Z" fill="#CECECE"/>
<path d="M19.7106 17.7159H14.607C14.2653 17.7159 13.9883 17.4325 13.9883 17.0829C13.9883 16.7332 14.2653 16.4498 14.607 16.4498H19.7106C20.0523 16.4498 20.3293 16.7332 20.3293 17.0829C20.3293 17.4325 20.0523 17.7159 19.7106 17.7159Z" fill="#CECECE"/>
</svg>
