<svg width="14" height="25" viewBox="0 0 14 25" fill="none" xmlns="http://www.w3.org/2000/svg">
<g clip-path="url(#clip0_6038_6264)">
<path d="M3.92285 13.8C3.92285 15.4621 5.30325 16.8142 6.99995 16.8142C8.69666 16.8142 10.0771 15.462 10.0771 13.8C10.0771 12.1379 8.69669 10.7857 6.99995 10.7857C5.30322 10.7857 3.92285 12.1379 3.92285 13.8Z" fill="#3A3939"/>
<path d="M2.0959 24.5H11.9033C12.3095 24.5 12.6388 24.1774 12.6388 23.7795C12.6388 20.7334 10.109 18.2553 6.99956 18.2553C3.89009 18.2553 1.36035 20.7334 1.36035 23.7795C1.36035 24.1774 1.68968 24.5 2.0959 24.5Z" fill="#FFC328"/>
<path d="M3.92285 13.8C3.92285 15.4621 5.30325 16.8142 6.99995 16.8142V10.7857C5.30322 10.7857 3.92285 12.1379 3.92285 13.8Z" fill="#3A3939"/>
<path d="M1.36035 23.7795C1.36035 24.1774 1.68968 24.5 2.0959 24.5H6.99959V18.2553C3.89011 18.2553 1.36035 20.7334 1.36035 23.7795Z" fill="#FFC328"/>
</g>
<g clip-path="url(#clip1_6038_6264)">
<path d="M6.99821 0.5L7.48956 1.42458L8.59147 1.57072L7.79451 2.29623L7.98357 3.30819L6.99821 2.82821L6.01583 3.30819L6.20455 2.29623L5.40527 1.57072L6.50718 1.42458L6.99821 0.5Z" fill="#F87670"/>
<path d="M6.99805 9.7793V10.7857H11.8119L11.3173 9.7793H6.99805Z" fill="#FFC328"/>
<path d="M12.4069 4.64229L8.97506 6.31575L6.99805 2.82821V8.96641H11.2289L12.4069 4.64229Z" fill="#FFC328"/>
<path d="M12.4077 2.30761L12.8984 3.23188L14.0003 3.37834L13.204 4.10384L13.3927 5.12226L12.4077 4.64228L11.425 5.12226L11.6108 4.10384L10.8145 3.37834L11.9164 3.23188L12.4077 2.30761Z" fill="#F87670"/>
<path d="M2.18848 10.7857H6.99873V9.7793H2.67983L2.18848 10.7857Z" fill="#FFC328"/>
<path d="M5.02437 6.31575L1.58984 4.64229L2.76724 8.96641H6.9984V2.82821L5.02437 6.31575Z" fill="#FFC328"/>
<path d="M1.58995 2.30761L1.09926 3.23188L0 3.37834L0.796963 4.10384L0.607904 5.12226L1.58995 4.64228L2.57564 5.12226L2.38692 4.10384L3.18322 3.37834L2.08429 3.23188L1.58995 2.30761Z" fill="#F87670"/>
</g>
<defs>
<clipPath id="clip0_6038_6264">
<rect width="14" height="13.7143" fill="white" transform="translate(0 10.7857)"/>
</clipPath>
<clipPath id="clip1_6038_6264">
<rect width="14" height="10.2857" fill="white" transform="translate(0 0.5)"/>
</clipPath>
</defs>
</svg>
