<svg width="19" height="18" viewBox="0 0 19 18" fill="none" xmlns="http://www.w3.org/2000/svg">
<path d="M16.4375 11.5903H7.17125M7.17125 11.5903C7.17125 12.0239 6.99824 12.4397 6.69162 12.7464C6.385 13.053 5.96913 13.2253 5.5355 13.2253C5.10187 13.2253 4.686 13.053 4.37938 12.7464C4.07276 12.4397 3.9005 12.0239 3.9005 11.5903M7.17125 11.5903C7.17125 11.1566 6.99824 10.7408 6.69162 10.4341C6.385 10.1275 5.96913 9.95525 5.5355 9.95525C5.10187 9.95525 4.686 10.1275 4.37938 10.4341C4.07276 10.7408 3.9005 11.1566 3.9005 11.5903M3.9005 11.5903H2.5625M16.4375 6.635H14.1087M14.1087 6.635C14.1087 6.84971 14.0657 7.06232 13.9835 7.26069C13.9014 7.45905 13.7809 7.6393 13.6291 7.79112C13.4773 7.94294 13.2971 8.06338 13.0987 8.14554C12.9003 8.22771 12.6877 8.27 12.473 8.27C12.0394 8.27 11.6235 8.09774 11.3169 7.79112C11.0103 7.4845 10.838 7.06863 10.838 6.635M14.1087 6.635C14.1087 6.42029 14.0657 6.20768 13.9835 6.00931C13.9014 5.81095 13.7809 5.6307 13.6291 5.47888C13.4773 5.32706 13.2971 5.20662 13.0987 5.12446C12.9003 5.04229 12.6877 5 12.473 5C12.0394 5 11.6235 5.17226 11.3169 5.47888C11.0103 5.7855 10.838 6.20137 10.838 6.635M10.838 6.635H2.5625" stroke="#0C0C0C" stroke-width="1.5" stroke-miterlimit="10" stroke-linecap="round"/>
</svg>
