<svg width="33" height="30" viewBox="0 0 33 30" fill="none" xmlns="http://www.w3.org/2000/svg">
<g clip-path="url(#clip0_6001_15682)">
<path d="M22.7025 10.4413H3.40039L5.7764 6.87849C5.97784 6.57645 6.46496 6.37842 7.00656 6.37842H19.0963C19.6379 6.37842 20.1251 6.57645 20.3265 6.87849L22.7025 10.4413Z" fill="white"/>
<path d="M20.3116 6.87849C20.1102 6.57645 19.623 6.37842 19.0814 6.37842H17.5293C18.0709 6.37842 18.558 6.57645 18.7595 6.87849L21.1355 10.4413H22.6876L20.3116 6.87849Z" fill="white"/>
<path d="M23.0157 10.2323L20.6397 6.66948C20.365 6.2576 19.7735 6.00171 19.0961 6.00171H7.00636C6.32895 6.00171 5.73747 6.2576 5.46285 6.66948L3.0868 10.2323C2.97133 10.4054 3.01809 10.6393 3.19116 10.7547C3.2554 10.7975 3.32802 10.818 3.39979 10.818C3.52148 10.818 3.64096 10.7591 3.71348 10.6503L6.08959 7.08743C6.19968 6.92225 6.54998 6.75506 7.00636 6.75506H19.0961C19.5525 6.75506 19.9028 6.9223 20.0129 7.08743L22.3889 10.6503C22.5044 10.8234 22.7383 10.8701 22.9113 10.7547C23.0843 10.6393 23.131 10.4054 23.0157 10.2323Z" fill="#001F3F"/>
<path d="M4.34355 19.7125H1.73702C1.48641 19.7125 1.2832 19.5093 1.2832 19.2587V15.97H4.79731V19.2587C4.79731 19.5093 4.59416 19.7125 4.34355 19.7125Z" fill="#455A64"/>
<path d="M3.24478 15.97V19.2587C3.24478 19.5093 3.04163 19.7125 2.79102 19.7125H4.34316C4.59377 19.7125 4.79693 19.5093 4.79693 19.2587V15.97H3.24478Z" fill="#37474F"/>
<path d="M23.9783 19.7125H21.3718C21.1212 19.7125 20.918 19.5093 20.918 19.2587V15.97H24.4321V19.2587C24.4321 19.5093 24.2289 19.7125 23.9783 19.7125Z" fill="#455A64"/>
<path d="M22.8795 15.97V19.2587C22.8795 19.5093 22.6764 19.7125 22.4258 19.7125H23.9779C24.2285 19.7125 24.4317 19.5093 24.4317 19.2587V15.97H22.8795Z" fill="#37474F"/>
<path d="M24.7828 17.46H0.931388C0.417003 17.46 0 17.043 0 16.5287V12.995C0 11.4594 1.24483 10.2146 2.7804 10.2146H22.9338C24.4694 10.2146 25.7142 11.4594 25.7142 12.995V16.5287C25.7142 17.043 25.2972 17.46 24.7828 17.46Z" fill="#2D2D2D"/>
<path d="M22.935 10.2146H21.3828C22.9182 10.2146 24.1629 11.4596 24.1629 12.9954V16.5286C24.1629 17.043 23.7459 17.46 23.2316 17.46H24.7838C25.2981 17.46 25.715 17.043 25.715 16.5286V12.9954C25.715 11.4596 24.4703 10.2146 22.935 10.2146Z" fill="#001F3F"/>
<path d="M19.7898 17.4555H5.92383V15.6108C5.92383 15.3821 6.10915 15.1968 6.33782 15.1968H19.3759C19.6045 15.1968 19.7899 15.3821 19.7899 15.6108V17.4555H19.7898Z" fill="#455A64"/>
<path d="M18.4279 12.8137H7.28583C6.53364 12.8137 5.92383 12.2039 5.92383 11.4517V10.2146H19.7899V11.4517C19.7899 12.2039 19.1801 12.8137 18.4279 12.8137Z" fill="#001F3F"/>
<path d="M10.0684 10.2146H11.724V12.8136H10.0684V10.2146Z" fill="#F3F3F3"/>
<path d="M13.9902 10.2146H15.6459V12.8136H13.9902V10.2146Z" fill="#F3F3F3"/>
<path d="M4.1571 14.4719C3.63031 14.9988 2.26173 14.4841 1.73494 13.9572C1.20815 13.4303 1.20815 12.576 1.73494 12.049C2.26173 11.5221 3.11582 11.5221 3.64261 12.049C4.16935 12.576 4.68389 13.9449 4.1571 14.4719Z" fill="#FFC328"/>
<path d="M21.5567 14.4719C22.0835 14.9988 23.4521 14.4841 23.9789 13.9572C24.5057 13.4303 24.5057 12.576 23.9789 12.049C23.4521 11.5221 22.598 11.5221 22.0712 12.049C21.5445 12.576 21.0299 13.9449 21.5567 14.4719Z" fill="#FFC328"/>
</g>
<g clip-path="url(#clip1_6001_15682)">
<path d="M29.5599 14.727H10.2578L12.6338 11.1641C12.8353 10.8621 13.3224 10.6641 13.864 10.6641H25.9537C26.4953 10.6641 26.9825 10.8621 27.1839 11.1641L29.5599 14.727Z" fill="white"/>
<path d="M27.169 11.1641C26.9676 10.8621 26.4805 10.6641 25.9389 10.6641H24.3867C24.9283 10.6641 25.4154 10.8621 25.6169 11.1641L27.9929 14.727H29.545L27.169 11.1641Z" fill="white"/>
<path d="M29.8731 14.5179L27.4971 10.9551C27.2224 10.5432 26.6309 10.2874 25.9535 10.2874H13.8638C13.1864 10.2874 12.5949 10.5432 12.3203 10.9551L9.94422 14.5179C9.82876 14.691 9.87551 14.9249 10.0486 15.0403C10.1128 15.0832 10.1854 15.1037 10.2572 15.1037C10.3789 15.1037 10.4984 15.0447 10.5709 14.9359L12.947 11.3731C13.0571 11.2079 13.4074 11.0407 13.8638 11.0407H25.9535C26.4099 11.0407 26.7602 11.2079 26.8703 11.3731L29.2463 14.9359C29.3618 15.109 29.5957 15.1557 29.7687 15.0403C29.9418 14.9249 29.9885 14.6911 29.8731 14.5179Z" fill="#001F3F"/>
<path d="M11.201 23.9982H8.59444C8.34383 23.9982 8.14062 23.795 8.14062 23.5444V20.2556H11.6547V23.5444C11.6547 23.795 11.4516 23.9982 11.201 23.9982Z" fill="#455A64"/>
<path d="M10.1022 20.2556V23.5443C10.1022 23.795 9.89905 23.9982 9.64844 23.9982H11.2006C11.4512 23.9982 11.6543 23.795 11.6543 23.5443V20.2556H10.1022Z" fill="#37474F"/>
<path d="M30.8357 23.9982H28.2292C27.9786 23.9982 27.7754 23.795 27.7754 23.5444V20.2556H31.2895V23.5444C31.2896 23.795 31.0863 23.9982 30.8357 23.9982Z" fill="#455A64"/>
<path d="M29.737 20.2556V23.5443C29.737 23.795 29.5338 23.9982 29.2832 23.9982H30.8353C31.086 23.9982 31.2891 23.795 31.2891 23.5443V20.2556H29.737Z" fill="#37474F"/>
<path d="M31.6403 21.7456H7.78881C7.27442 21.7456 6.85742 21.3287 6.85742 20.8143V17.2806C6.85742 15.7451 8.10225 14.5002 9.63782 14.5002H29.7912C31.3268 14.5002 32.5716 15.7451 32.5716 17.2806V20.8143C32.5717 21.3287 32.1547 21.7456 31.6403 21.7456Z" fill="#FFCD73"/>
<path d="M29.7924 14.5002H28.2402C29.7756 14.5002 31.0203 15.7452 31.0203 17.281V20.8142C31.0203 21.3286 30.6033 21.7457 30.089 21.7457H31.6412C32.1555 21.7457 32.5724 21.3286 32.5724 20.8142V17.281C32.5724 15.7453 31.3278 14.5002 29.7924 14.5002Z" fill="#001F3F"/>
<path d="M26.6472 21.7411H12.7812V19.8964C12.7812 19.6678 12.9666 19.4824 13.1952 19.4824H26.2333C26.4619 19.4824 26.6473 19.6677 26.6473 19.8964V21.7411H26.6472Z" fill="#455A64"/>
<path d="M25.2853 17.0993H14.1433C13.3911 17.0993 12.7812 16.4896 12.7812 15.7373V14.5002H26.6473V15.7373C26.6473 16.4895 26.0375 17.0993 25.2853 17.0993Z" fill="#001F3F"/>
<path d="M16.9258 14.5002H18.5814V17.0993H16.9258V14.5002Z" fill="#F3F3F3"/>
<path d="M20.8457 14.5002H22.5014V17.0993H20.8457V14.5002Z" fill="#F3F3F3"/>
<path d="M11.0145 18.7573C10.4877 19.2842 9.11915 18.7695 8.59236 18.2426C8.06557 17.7157 8.06557 16.8614 8.59236 16.3344C9.11915 15.8075 9.97324 15.8075 10.5 16.3344C11.0268 16.8614 11.5413 18.2303 11.0145 18.7573Z" fill="black"/>
<path d="M28.4141 18.7573C28.9409 19.2842 30.3095 18.7695 30.8363 18.2426C31.3631 17.7157 31.3631 16.8614 30.8363 16.3344C30.3095 15.8075 29.4554 15.8075 28.9286 16.3344C28.4019 16.8614 27.8873 18.2303 28.4141 18.7573Z" fill="black"/>
</g>
<defs>
<clipPath id="clip0_6001_15682">
<rect width="25.7142" height="25.7142" fill="white"/>
</clipPath>
<clipPath id="clip1_6001_15682">
<rect width="25.7142" height="25.7142" fill="white" transform="translate(6.85742 4.28564)"/>
</clipPath>
</defs>
</svg>
